<?xml version="1.0" encoding="UTF-8"?>
<svg id="Layer_2" data-name="Layer 2" xmlns="http://www.w3.org/2000/svg" viewBox="0 0 606.05 227.67">
  <g id="Layer_1-2" data-name="Layer 1">
    <g>
      <path d="M267.45,19.97c-2.6,3.74-5.79,6.77-9.58,9.11-3.79,2.34-9.62,3.5-17.47,3.5h-80.5l-37.4,47.28c8.62-2.57,17.27-4.49,25.92-5.78,8.65-1.28,16.63-1.93,23.95-1.93,18.7,0,32.02,3.91,39.98,11.73,7.95,7.83,9.29,18.27,4,31.35-4.15,10.28-10.58,19.79-19.26,28.55-8.69,8.76-18.93,16.81-30.7,24.17-11.78,7.36-24.59,14.06-38.43,20.14-13.84,6.07-28.05,11.56-42.63,16.46-14.58,4.9-29.1,9.28-43.52,13.13-14.43,3.85-27.91,7.18-40.42,9.98-.6-1.87-1.02-3.68-1.26-5.43-.24-1.75-.12-3.21.35-4.38.94-2.34,4.28-4.2,9.99-5.6,12.44-3.27,26.22-7.53,41.35-12.78,15.13-5.25,29.83-11.62,44.1-19.09,14.27-7.48,27.13-16.17,38.6-26.09,11.46-9.92,19.74-21.19,24.84-33.8,3.3-8.17,3.37-14.71.2-19.61-3.17-4.9-10.45-7.35-21.83-7.35-13.28,0-30.63,2.69-52.04,8.06L157.2,0h123.6l-13.35,19.97Z"/>
      <path d="M430.07,19.97c-2.6,3.74-5.79,6.77-9.57,9.11-3.79,2.34-9.62,3.5-17.48,3.5h-80.5l-37.4,47.28c8.62-2.57,17.27-4.49,25.92-5.78,8.65-1.28,16.64-1.93,23.95-1.93,18.7,0,32.02,3.91,39.98,11.73,7.95,7.83,9.29,18.27,4,31.35-4.15,10.28-10.57,19.79-19.26,28.55-8.69,8.76-18.93,16.81-30.7,24.17-11.78,7.36-24.59,14.06-38.43,20.14-13.84,6.07-28.05,11.56-42.63,16.46-14.58,4.9-29.1,9.28-43.52,13.13-14.43,3.85-27.91,7.18-40.42,9.98-.6-1.87-1.02-3.68-1.26-5.43-.24-1.75-.12-3.21.35-4.38.94-2.34,4.28-4.2,9.99-5.6,12.44-3.27,26.22-7.53,41.35-12.78s29.83-11.62,44.1-19.09c14.26-7.48,27.13-16.17,38.6-26.09,11.46-9.92,19.74-21.19,24.84-33.8,3.3-8.17,3.36-14.71.2-19.61-3.17-4.9-10.45-7.35-21.83-7.35-13.28,0-30.63,2.69-52.04,8.06L319.83,0h123.6l-13.35,19.97Z"/>
      <path d="M592.7,19.97c-2.6,3.74-5.79,6.77-9.57,9.11-3.79,2.34-9.62,3.5-17.48,3.5h-80.5l-37.4,47.28c8.62-2.57,17.27-4.49,25.92-5.78,8.65-1.28,16.63-1.93,23.95-1.93,18.7,0,32.02,3.91,39.98,11.73,7.95,7.83,9.29,18.27,4,31.35-4.15,10.28-10.57,19.79-19.26,28.55-8.69,8.76-18.93,16.81-30.7,24.17-11.78,7.36-24.59,14.06-38.43,20.14-13.84,6.07-28.05,11.56-42.63,16.46-14.58,4.9-29.1,9.28-43.52,13.13-14.43,3.85-27.91,7.18-40.42,9.98-.6-1.87-1.02-3.68-1.26-5.43-.24-1.75-.12-3.21.35-4.38.94-2.34,4.28-4.2,9.99-5.6,12.44-3.27,26.22-7.53,41.35-12.78s29.83-11.62,44.1-19.09c14.26-7.48,27.13-16.17,38.6-26.09,11.46-9.92,19.74-21.19,24.84-33.8,3.3-8.17,3.36-14.71.2-19.61-3.17-4.9-10.45-7.35-21.83-7.35-13.28,0-30.63,2.69-52.04,8.06L482.45,0h123.6l-13.35,19.97Z"/>
    </g>
  </g>
</svg>